HIERARCHY
ROOT hip
{
	OFFSET 0.000000 0.000000 0.000000 
	CHANNELS 6 Xposition Yposition Zposition Xrotation Zrotation Yrotation
	JOINT abdomen
	{
		OFFSET 0.000000 3.402643 0.000000 
		CHANNELS 3 Xrotation Zrotation Yrotation
		JOINT chest
		{
			OFFSET 0.000000 8.438565 -0.680529 
			CHANNELS 3 Xrotation Zrotation Yrotation
			JOINT neck
			{
				OFFSET 0.000000 10.207942 -0.272212 
				CHANNELS 3 Xrotation Zrotation Yrotation
				JOINT head
				{
					OFFSET 0.000000 3.130431 0.000000 
					CHANNELS 3 Xrotation Zrotation Yrotation
					End Site
					{
						OFFSET 0.000000 3.130435 0.000000 
					}
				}
			}
			JOINT lCollar
			{
				OFFSET 3.470700 6.669187 -0.816635 
				CHANNELS 3 Yrotation Zrotation Xrotation
				JOINT lShldr
				{
					OFFSET 3.198488 0.000000 0.000000 
					CHANNELS 3 Zrotation Yrotation Xrotation
					JOINT lForeArm
					{
						OFFSET 10.139888 0.000000 0.000000 
						CHANNELS 3 Yrotation Zrotation Xrotation
						JOINT lHand
						{
							OFFSET 8.370511 0.000000 0.000000 
							CHANNELS 3 Zrotation Yrotation Xrotation
							End Site
							{
								OFFSET 4.083176 0.000000 0.000000 
							}
						}
					}
				}
			}
			JOINT rCollar
			{
				OFFSET -3.470700 6.669187 -0.816635 
				CHANNELS 3 Yrotation Zrotation Xrotation
				JOINT rShldr
				{
					OFFSET -3.198488 0.000000 0.000000 
					CHANNELS 3 Zrotation Yrotation Xrotation
					JOINT rForeArm
					{
						OFFSET -10.139888 0.000000 0.000000 
						CHANNELS 3 Yrotation Zrotation Xrotation
						JOINT rHand
						{
							OFFSET -8.370511 0.000000 0.000000 
							CHANNELS 3 Zrotation Yrotation Xrotation
							End Site
							{
								OFFSET -4.083176 0.000000 0.000000 
							}
						}
					}
				}
			}
		}
	}
	JOINT lThigh
	{
		OFFSET 5.308129 -1.633274 1.361059 
		CHANNELS 3 Xrotation Zrotation Yrotation
		JOINT lShin
		{
			OFFSET -2.041588 -20.007561 0.000000 
			CHANNELS 3 Xrotation Zrotation Yrotation
			JOINT lFoot
			{
				OFFSET 0.000000 -19.190928 -1.224953 
				CHANNELS 3 Xrotation Yrotation Zrotation
				End Site
				{
					OFFSET 0.000000 -2.449906 4.627600 
				}
			}
		}
	}
	JOINT rThigh
	{
		OFFSET -5.308129 -1.633274 1.361059 
		CHANNELS 3 Xrotation Zrotation Yrotation
		JOINT rShin
		{
			OFFSET 2.041588 -20.007561 0.000000 
			CHANNELS 3 Xrotation Zrotation Yrotation
			JOINT rFoot
			{
				OFFSET 0.000000 -19.190928 -1.224953 
				CHANNELS 3 Xrotation Yrotation Zrotation
				End Site
				{
					OFFSET 0.000000 -2.449906 4.627600 
				}
			}
		}
	}
}
MOTION
Frames: 13
Frame Time: 0.033333
1.206415 51.079769 0.178184 1.187602 -1.699028 -0.859866 0.000000 0.000000 0.000000 -0.800864 -1.318036 -1.269869 6.425814 -0.966352 -1.738693 11.721576 3.300675 -0.459348 0.934448 -9.578500 0.099532 -50.369862 7.991041 -24.231089 -40.011768 6.634185 24.950832 -27.373398 2.033950 -3.127594 -2.160854 2.983679 -0.136944 51.497677 -11.845293 -4.260057 47.229202 2.865572 16.468229 -4.626498 0.601225 -3.604670 0.790015 9.097346 5.472923 1.931530 -3.248076 17.217232 -1.766311 0.084341 -5.114028 2.799178 -9.357281 -9.302175 1.125569 4.580120 -21.518875 -0.479061 -0.050557 6.392455 
1.189011 51.015732 -0.050347 1.297113 -2.204946 -2.492146 0.000000 0.000000 0.000000 -0.426548 -1.328062 -0.556944 6.542212 -1.318051 -1.240580 11.386353 3.515281 -0.802268 1.206219 -9.913305 0.427016 -56.705185 7.791389 -23.702055 -35.891331 7.396638 24.169100 -23.954182 6.347185 -4.154836 -1.110464 4.077523 0.234433 54.548447 -12.169290 -0.343761 45.447765 4.099371 16.897560 -4.360104 0.882917 -3.602161 -0.781823 9.912438 5.967798 5.142608 -3.481722 17.976034 -3.228313 0.193179 -5.504817 0.818088 -9.561308 -9.552924 4.314180 5.283660 -17.226885 -0.587386 -0.035155 5.898479 
1.115753 50.992603 -0.174469 0.924361 -2.815737 -3.901367 0.000000 0.000000 0.000000 0.200586 -1.289052 -0.234535 6.630432 -1.494019 -0.732682 11.442371 3.466543 -0.694453 0.937115 -10.484005 0.963334 -62.321774 9.095547 -23.974098 -35.241943 8.287449 26.118116 -26.563234 10.438376 -5.314116 -0.463398 4.495917 0.802887 57.370625 -12.019150 4.156369 43.094616 5.822416 16.681875 -4.487604 -0.370113 -3.585592 -1.084022 10.697189 6.539643 6.985235 -3.422522 18.863907 -4.015727 0.233680 -5.998405 -3.026413 -10.266235 -9.713312 12.477307 5.798336 -11.356617 -0.950090 -0.087777 6.576320 
1.023076 50.975513 -0.347119 0.669980 -2.907460 -5.300005 0.000000 0.000000 0.000000 0.823369 -1.494138 -0.117402 6.401103 -1.562434 -0.527680 12.003434 1.943342 -0.244000 1.403909 -11.899804 1.597027 -65.824913 10.311635 -22.143080 -36.444084 7.937836 27.340612 -32.056450 11.925512 -6.082356 -0.010170 4.542051 1.361665 59.464645 -11.457088 8.212797 40.869213 7.432806 18.272097 -3.034941 -1.853045 -3.528627 -0.918159 10.916147 6.793679 7.423915 -3.382769 19.996574 -4.041450 0.236684 -6.304508 -7.273846 -11.676035 -9.716749 21.044281 5.810398 -3.913081 -0.851514 -0.083489 6.973730 
0.858623 50.995754 -0.443034 0.571770 -3.089175 -5.877949 0.000000 0.000000 0.000000 1.180499 -1.445287 -0.341934 6.342995 -1.503833 -0.566724 11.641544 0.898437 0.058740 1.614242 -12.374772 1.970649 -68.409294 11.728118 -17.417200 -38.061199 6.072597 26.142700 -33.245075 10.738512 -5.818581 -0.114805 4.598221 1.674723 60.873085 -11.442760 11.253014 39.395641 8.741167 20.172859 -1.471218 -2.791344 -3.500083 -0.606068 11.166293 6.926470 7.009531 -3.193198 20.464918 -3.635964 0.209550 -6.487667 -10.273406 -12.685308 -9.673974 26.447662 5.310856 -0.428548 -0.605742 -0.048170 5.088210 
0.560427 51.000397 -0.451948 0.569031 -3.536030 -5.880816 0.000000 0.000000 0.000000 1.310622 -1.064388 -0.635019 6.442082 -1.406155 -0.664342 10.733794 0.537108 0.146569 1.332570 -11.571626 2.064244 -70.436600 12.711454 -11.098570 -39.220734 3.515124 23.331905 -30.391022 9.140398 -5.167400 -0.460081 4.714513 1.793062 62.497398 -12.496056 12.161498 38.961533 9.237339 21.480497 -0.571530 -3.117077 -3.499431 -0.625277 11.986959 7.351922 7.155262 -3.114575 19.990515 -3.508065 0.251457 -6.826937 -11.900249 -13.138215 -9.699913 28.671293 4.707028 -4.300768 -0.548832 -0.018413 2.713376 
0.174036 50.988316 -0.370001 0.293332 -3.612781 -6.028240 0.000000 0.000000 0.000000 1.453982 -0.820267 -0.605546 6.474564 -1.503780 -0.742445 10.351330 0.341797 -0.039062 1.365116 -11.236124 2.190553 -70.356995 12.938533 -2.925471 -41.047264 0.554472 22.048096 -22.904400 9.565649 -4.867680 -0.614438 4.874629 1.939794 63.592701 -13.983417 11.898774 38.693707 9.295215 21.402454 1.947964 -3.580571 -3.515357 0.174351 12.403500 7.677947 6.536486 -2.983477 19.725573 -3.145500 0.239852 -7.277895 -12.124456 -13.801476 -9.721828 28.087418 3.698203 -10.588206 0.537893 0.007256 1.785536 
-0.277217 50.978825 -0.242104 0.039455 -3.380185 -5.948438 0.000000 0.000000 0.000000 1.432190 -0.683564 -0.537188 6.528147 -1.562312 -0.889140 9.960129 0.175779 -0.263671 1.388920 -11.040439 2.150306 -69.124191 12.588730 4.991860 -43.521465 -1.786190 25.510220 -10.293286 13.587811 -4.443144 -0.675274 4.990002 1.921146 64.075493 -15.566653 11.059446 38.326233 9.163420 20.738949 4.711569 -4.251451 -3.554383 1.336560 12.524805 7.943692 5.100443 -2.864078 19.560911 -2.388107 0.189768 -7.670563 -11.657620 -14.711967 -9.765922 25.607433 2.711446 -16.589031 2.453623 0.030367 0.476993 
-0.855568 50.896492 -0.111225 0.013602 -3.197296 -5.653691 0.000000 0.000000 0.000000 1.156665 -0.429666 -0.576229 6.462983 -1.562259 -1.006284 9.608047 0.185542 -0.410154 1.117700 -10.369967 1.867223 -67.705498 11.911915 10.160223 -45.198265 -2.947809 30.979603 -2.444829 15.707275 -3.980498 -0.654526 5.012357 1.676248 63.983410 -17.120094 10.682497 37.943569 9.118223 20.453959 6.372719 -4.461894 -3.582367 1.472640 13.048429 8.209934 5.187966 -2.795882 19.049919 -2.312811 0.192717 -8.403940 -10.816517 -15.470510 -9.641506 21.931845 2.001179 -20.064243 3.696319 -0.051766 -0.853517 
-1.558766 50.776386 0.035373 -0.132380 -2.847824 -5.573580 0.000000 0.000000 0.000000 0.940028 -0.302724 -0.478561 6.322108 -1.484192 -0.898895 9.122107 -0.185544 -0.312530 1.099412 -10.031411 1.656734 -65.704056 10.527817 13.134909 -45.184155 -3.557075 35.970810 -4.184375 11.231668 -3.895563 -0.558790 4.997045 1.480008 63.049503 -17.926888 11.414436 37.356400 9.501863 20.063046 6.490310 -4.797117 -3.609136 1.854419 13.511621 8.495103 5.338621 -2.674408 18.478603 -2.292746 0.185162 -9.405501 -9.167721 -16.146646 -9.140080 17.375175 1.451702 -17.540506 4.110471 -0.042531 -0.787229 
-2.386566 50.580013 0.167965 0.017193 -2.022066 -5.452707 0.000000 0.000000 0.000000 0.483354 -0.556620 -0.498118 6.047626 -1.552575 -0.820805 8.408532 -0.214844 -0.087927 0.910931 -9.807299 1.220096 -62.832073 9.005245 16.196127 -44.582870 -4.526408 36.047581 -6.912345 7.138776 -3.777750 -0.690037 5.105353 1.058258 61.644089 -18.322235 12.384521 37.064232 9.842920 20.710443 6.260676 -5.356521 -3.647144 1.630434 13.720957 8.421696 5.892020 -2.581723 17.617216 -2.502093 0.253513 -10.531072 -4.872923 -16.958632 -9.035227 8.292378 0.632544 -9.469759 5.469305 0.098340 3.027437 
-3.358297 50.320980 0.318037 0.011656 -1.166766 -5.352836 0.000000 0.000000 0.000000 0.094627 -0.693327 -0.556718 5.812242 -2.167938 -0.303257 7.751837 1.103514 -0.107402 1.025672 -10.708199 0.896145 -58.189564 7.332082 19.362566 -43.892624 -6.002912 31.619110 -10.757257 4.926053 -3.674565 -0.601347 4.426548 0.704761 61.092770 -18.438824 13.203882 36.689770 10.085594 21.207335 5.640019 -6.055450 -3.678945 1.385370 13.921538 8.147929 6.861745 -2.195934 17.233635 -2.786718 0.308898 -12.086893 -0.869498 -17.763971 -8.822688 0.819468 0.456282 0.788393 4.035495 0.373702 9.018878 
-4.586349 50.023979 0.442028 -0.233579 -0.778183 -5.078716 0.000000 0.000000 0.000000 -0.023105 -0.585905 -0.605537 5.424251 -2.656244 0.117062 8.030786 2.060537 -0.175668 1.062541 -11.714980 0.808133 -53.989964 5.931768 19.624680 -43.253738 -6.589768 28.955080 -15.149114 4.557487 -3.669369 -0.651880 3.636207 0.576835 60.915897 -18.072845 13.699606 36.501446 10.232002 21.316963 5.075541 -6.390388 -3.682514 1.415377 14.959783 8.442100 7.522736 -1.676644 17.622561 -2.288846 0.296543 -13.985587 -0.654777 -17.991114 -7.460093 1.627364 -0.907357 7.034535 -0.467103 -0.045924 13.458437 
